<mxfile host="Electron" agent="Mozilla/5.0 (Windows NT 10.0; Win64; x64) AppleWebKit/537.36 (KHTML, like Gecko) draw.io/24.7.8 Chrome/128.0.6613.36 Electron/32.0.1 Safari/537.36" version="24.7.8">
  <diagram name="Strona-1" id="dvCjY_FfTquLZ3vWoJEp">
    <mxGraphModel dx="1050" dy="621" grid="1" gridSize="10" guides="1" tooltips="1" connect="1" arrows="1" fold="1" page="1" pageScale="1" pageWidth="827" pageHeight="1169" math="0" shadow="0">
      <root>
        <mxCell id="0" />
        <mxCell id="1" parent="0" />
        <mxCell id="EbnzW8y3Jd4FgQ3Uatvo-1" value="TheForest" style="whiteSpace=wrap;html=1;aspect=fixed;" parent="1" vertex="1">
          <mxGeometry x="430" y="340" width="120" height="120" as="geometry" />
        </mxCell>
        <mxCell id="EbnzW8y3Jd4FgQ3Uatvo-2" value="" style="endArrow=none;html=1;rounded=0;exitX=0;exitY=0;exitDx=0;exitDy=0;" parent="1" source="EbnzW8y3Jd4FgQ3Uatvo-1" edge="1" target="EbnzW8y3Jd4FgQ3Uatvo-3">
          <mxGeometry width="50" height="50" relative="1" as="geometry">
            <mxPoint x="390" y="150" as="sourcePoint" />
            <mxPoint x="300" y="100" as="targetPoint" />
          </mxGeometry>
        </mxCell>
        <mxCell id="EbnzW8y3Jd4FgQ3Uatvo-3" value="Użytkownik" style="shape=umlActor;verticalLabelPosition=bottom;verticalAlign=top;html=1;outlineConnect=0;" parent="1" vertex="1">
          <mxGeometry x="260" y="210" width="30" height="60" as="geometry" />
        </mxCell>
        <mxCell id="EbnzW8y3Jd4FgQ3Uatvo-4" value="" style="endArrow=none;html=1;rounded=0;entryX=0.25;entryY=0.1;entryDx=0;entryDy=0;entryPerimeter=0;exitX=0.346;exitY=0.219;exitDx=0;exitDy=0;exitPerimeter=0;" parent="1" source="EbnzW8y3Jd4FgQ3Uatvo-3" target="EbnzW8y3Jd4FgQ3Uatvo-3" edge="1">
          <mxGeometry width="50" height="50" relative="1" as="geometry">
            <mxPoint x="390" y="150" as="sourcePoint" />
            <mxPoint x="440" y="100" as="targetPoint" />
          </mxGeometry>
        </mxCell>
        <mxCell id="EbnzW8y3Jd4FgQ3Uatvo-6" value="Urząd Skarbowy" style="shape=umlActor;verticalLabelPosition=bottom;verticalAlign=top;html=1;outlineConnect=0;" parent="1" vertex="1">
          <mxGeometry x="630" y="200" width="30" height="60" as="geometry" />
        </mxCell>
        <mxCell id="EbnzW8y3Jd4FgQ3Uatvo-8" value="" style="endArrow=none;html=1;rounded=0;entryX=0.25;entryY=0.1;entryDx=0;entryDy=0;entryPerimeter=0;exitX=0.401;exitY=0.235;exitDx=0;exitDy=0;exitPerimeter=0;" parent="1" source="EbnzW8y3Jd4FgQ3Uatvo-6" target="EbnzW8y3Jd4FgQ3Uatvo-6" edge="1">
          <mxGeometry width="50" height="50" relative="1" as="geometry">
            <mxPoint x="470" y="40" as="sourcePoint" />
            <mxPoint x="520" y="-10" as="targetPoint" />
          </mxGeometry>
        </mxCell>
        <mxCell id="EbnzW8y3Jd4FgQ3Uatvo-11" value="" style="endArrow=none;html=1;rounded=0;exitX=0.5;exitY=0;exitDx=0;exitDy=0;" parent="1" source="EbnzW8y3Jd4FgQ3Uatvo-1" target="EbnzW8y3Jd4FgQ3Uatvo-6" edge="1">
          <mxGeometry width="50" height="50" relative="1" as="geometry">
            <mxPoint x="380" y="180" as="sourcePoint" />
            <mxPoint x="430" y="130" as="targetPoint" />
          </mxGeometry>
        </mxCell>
        <mxCell id="EbnzW8y3Jd4FgQ3Uatvo-12" value="Operator kart płatniczych" style="shape=umlActor;verticalLabelPosition=bottom;verticalAlign=top;html=1;outlineConnect=0;" parent="1" vertex="1">
          <mxGeometry x="270" y="470" width="30" height="60" as="geometry" />
        </mxCell>
        <mxCell id="EbnzW8y3Jd4FgQ3Uatvo-13" value="" style="endArrow=none;html=1;rounded=0;entryX=0.25;entryY=0.1;entryDx=0;entryDy=0;entryPerimeter=0;exitX=0.401;exitY=0.235;exitDx=0;exitDy=0;exitPerimeter=0;" parent="1" source="EbnzW8y3Jd4FgQ3Uatvo-12" target="EbnzW8y3Jd4FgQ3Uatvo-12" edge="1">
          <mxGeometry width="50" height="50" relative="1" as="geometry">
            <mxPoint x="200" y="300" as="sourcePoint" />
            <mxPoint x="250" y="250" as="targetPoint" />
          </mxGeometry>
        </mxCell>
        <mxCell id="EbnzW8y3Jd4FgQ3Uatvo-14" value="" style="endArrow=none;html=1;rounded=0;entryX=0.005;entryY=0.717;entryDx=0;entryDy=0;entryPerimeter=0;" parent="1" source="EbnzW8y3Jd4FgQ3Uatvo-12" target="EbnzW8y3Jd4FgQ3Uatvo-1" edge="1">
          <mxGeometry width="50" height="50" relative="1" as="geometry">
            <mxPoint x="380" y="240" as="sourcePoint" />
            <mxPoint x="358" y="220" as="targetPoint" />
          </mxGeometry>
        </mxCell>
      </root>
    </mxGraphModel>
  </diagram>
</mxfile>
